<mxfile host="app.diagrams.net" modified="2022-12-22T15:06:15.448Z" agent="5.0 (Windows NT 10.0; Win64; x64) AppleWebKit/537.36 (KHTML, like Gecko) Chrome/108.0.0.0 Safari/537.36 Edg/108.0.1462.54" version="20.7.4" etag="2_XjLw_p5a828m_OU5e3" type="github">
  <diagram id="3TpIth7930CGdU7Si65M" name="Page-1">
    <mxGraphModel dx="1002" dy="573" grid="1" gridSize="10" guides="1" tooltips="1" connect="1" arrows="1" fold="1" page="1" pageScale="1" pageWidth="850" pageHeight="1100" math="0" shadow="0">
      <root>
        <mxCell id="0" />
        <mxCell id="1" parent="0" />
        <mxCell id="3egOYAWSxlnJ1OimvQyN-1" value="" style="edgeStyle=orthogonalEdgeStyle;rounded=0;orthogonalLoop=1;jettySize=auto;html=1;" edge="1" parent="1" source="3egOYAWSxlnJ1OimvQyN-2">
          <mxGeometry relative="1" as="geometry">
            <mxPoint x="228.20000000000005" y="160" as="targetPoint" />
          </mxGeometry>
        </mxCell>
        <mxCell id="3egOYAWSxlnJ1OimvQyN-2" value="START&lt;br&gt;quit_program()" style="ellipse;whiteSpace=wrap;html=1;rounded=0;" vertex="1" parent="1">
          <mxGeometry x="139.07" width="178.12" height="80" as="geometry" />
        </mxCell>
        <mxCell id="3egOYAWSxlnJ1OimvQyN-3" value="import sys" style="rounded=0;whiteSpace=wrap;html=1;glass=0;dashed=1;" vertex="1" parent="1">
          <mxGeometry x="268.12" y="110" width="91.88" height="20" as="geometry" />
        </mxCell>
        <mxCell id="3egOYAWSxlnJ1OimvQyN-4" value="" style="endArrow=none;dashed=1;html=1;rounded=0;strokeColor=default;entryX=0;entryY=0.5;entryDx=0;entryDy=0;" edge="1" parent="1" target="3egOYAWSxlnJ1OimvQyN-3">
          <mxGeometry width="50" height="50" relative="1" as="geometry">
            <mxPoint x="228" y="120" as="sourcePoint" />
            <mxPoint x="420.12" y="340" as="targetPoint" />
          </mxGeometry>
        </mxCell>
        <mxCell id="3egOYAWSxlnJ1OimvQyN-7" value="" style="edgeStyle=orthogonalEdgeStyle;rounded=0;orthogonalLoop=1;jettySize=auto;html=1;" edge="1" parent="1" source="3egOYAWSxlnJ1OimvQyN-5" target="3egOYAWSxlnJ1OimvQyN-6">
          <mxGeometry relative="1" as="geometry" />
        </mxCell>
        <mxCell id="3egOYAWSxlnJ1OimvQyN-5" value="Display &quot;Thank you for visiting Singapore Active Dentists 2 Portal\nGoodbye!&quot;" style="shape=parallelogram;perimeter=parallelogramPerimeter;whiteSpace=wrap;html=1;fixedSize=1;" vertex="1" parent="1">
          <mxGeometry x="102.19" y="160" width="251.87" height="60" as="geometry" />
        </mxCell>
        <mxCell id="3egOYAWSxlnJ1OimvQyN-10" value="" style="edgeStyle=orthogonalEdgeStyle;rounded=0;orthogonalLoop=1;jettySize=auto;html=1;" edge="1" parent="1" source="3egOYAWSxlnJ1OimvQyN-6" target="3egOYAWSxlnJ1OimvQyN-9">
          <mxGeometry relative="1" as="geometry" />
        </mxCell>
        <mxCell id="3egOYAWSxlnJ1OimvQyN-6" value="sys.exit(0)" style="shape=process;whiteSpace=wrap;html=1;backgroundOutline=1;" vertex="1" parent="1">
          <mxGeometry x="168.125" y="260" width="120" height="60" as="geometry" />
        </mxCell>
        <mxCell id="3egOYAWSxlnJ1OimvQyN-8" value="Comment: This raises SystemExit(0) which causes the program to terminate" style="text;html=1;strokeColor=none;fillColor=none;align=center;verticalAlign=middle;whiteSpace=wrap;rounded=0;" vertex="1" parent="1">
          <mxGeometry x="288.12" y="275" width="211.87" height="30" as="geometry" />
        </mxCell>
        <mxCell id="3egOYAWSxlnJ1OimvQyN-9" value="END&lt;br&gt;quit_program()" style="ellipse;whiteSpace=wrap;html=1;rounded=0;" vertex="1" parent="1">
          <mxGeometry x="139.07" y="360" width="178.12" height="80" as="geometry" />
        </mxCell>
      </root>
    </mxGraphModel>
  </diagram>
</mxfile>
